<svg xmlns="http://www.w3.org/2000/svg" xmlns:xlink="http://www.w3.org/1999/xlink" width="200" zoomAndPan="magnify" viewBox="0 0 150 149.999998" height="200" preserveAspectRatio="xMidYMid meet" version="1.0"><defs><clipPath id="8b8aaa34fd"><path d="M 0 0 L 149.25 0 L 149.25 149.25 L 0 149.25 Z M 0 0 " clip-rule="nonzero"/></clipPath></defs><g clip-path="url(#8b8aaa34fd)"><path fill="#ffffff" d="M 127.390625 21.855469 C 113.296875 7.761719 94.558594 0 74.625 0 C 54.691406 0 35.953125 7.761719 21.855469 21.855469 C 7.761719 35.953125 0 54.691406 0 74.625 C 0 94.554688 7.761719 113.296875 21.855469 127.390625 C 35.953125 141.484375 54.691406 149.246094 74.625 149.246094 C 94.558594 149.246094 113.296875 141.484375 127.390625 127.390625 C 141.484375 113.296875 149.246094 94.554688 149.246094 74.625 C 149.246094 54.691406 141.484375 35.953125 127.390625 21.855469 Z M 25.242188 25.242188 C 38.433594 12.054688 55.96875 4.789062 74.625 4.789062 C 93.277344 4.789062 110.816406 12.054688 124.003906 25.242188 C 137.195312 38.433594 144.457031 55.96875 144.457031 74.625 C 144.457031 90.128906 139.433594 104.863281 130.164062 116.96875 C 122.785156 106.652344 111.003906 100.558594 98.207031 100.558594 L 51.039062 100.558594 C 38.246094 100.558594 26.460938 106.652344 19.085938 116.96875 C 9.8125 104.863281 4.789062 90.128906 4.789062 74.625 C 4.789062 55.96875 12.054688 38.433594 25.242188 25.242188 Z M 74.625 96.625 C 93.796875 96.625 109.394531 81.027344 109.394531 61.855469 C 109.394531 42.679688 93.796875 27.082031 74.625 27.082031 C 55.449219 27.082031 39.851562 42.679688 39.851562 61.855469 C 39.851562 81.027344 55.449219 96.625 74.625 96.625 Z M 74.625 96.625 " fill-opacity="1" fill-rule="nonzero"/></g></svg>